<?xml version="1.0" encoding="UTF-8" standalone="no"?>
<!-- Created with Inkscape (http://www.inkscape.org/) -->

<svg
   width="48"
   height="48"
   viewBox="0 0 12.7 12.7"
   version="1.1"
   id="svg1"
   inkscape:version="1.3.2 (091e20ef0f, 2023-11-25, custom)"
   sodipodi:docname="fruits-or-nuts-false.svg"
   xmlns:inkscape="http://www.inkscape.org/namespaces/inkscape"
   xmlns:sodipodi="http://sodipodi.sourceforge.net/DTD/sodipodi-0.dtd"
   xmlns="http://www.w3.org/2000/svg"
   xmlns:svg="http://www.w3.org/2000/svg">
  <sodipodi:namedview
     id="namedview1"
     pagecolor="#ffffff"
     bordercolor="#000000"
     borderopacity="0.25"
     inkscape:showpageshadow="2"
     inkscape:pageopacity="0.0"
     inkscape:pagecheckerboard="0"
     inkscape:deskcolor="#d1d1d1"
     inkscape:document-units="mm"
     inkscape:zoom="10.789596"
     inkscape:cx="12.558394"
     inkscape:cy="29.380154"
     inkscape:window-width="1920"
     inkscape:window-height="1042"
     inkscape:window-x="0"
     inkscape:window-y="23"
     inkscape:window-maximized="1"
     inkscape:current-layer="layer1"
     showgrid="false" />
  <defs
     id="defs1">
    <inkscape:path-effect
       effect="mirror_symmetry"
       start_point="1.4850841,1.4604894"
       end_point="1.4850841,4.2293404"
       center_point="1.4850841,2.8449149"
       id="path-effect4"
       is_visible="true"
       lpeversion="1.2"
       lpesatellites=""
       mode="free"
       discard_orig_path="false"
       fuse_paths="false"
       oposite_fuse="false"
       split_items="false"
       split_open="false"
       link_styles="false" />
    <inkscape:path-effect
       effect="mirror_symmetry"
       start_point="1.8405352,0.46376318"
       end_point="1.8405352,2.2476336"
       center_point="1.8405352,1.3556984"
       id="path-effect2"
       is_visible="true"
       lpeversion="1.2"
       lpesatellites=""
       mode="free"
       discard_orig_path="false"
       fuse_paths="false"
       oposite_fuse="false"
       split_items="false"
       split_open="false"
       link_styles="false" />
    <inkscape:path-effect
       effect="mirror_symmetry"
       start_point="2.329911,0.46376312"
       end_point="2.329911,2.2476336"
       center_point="2.329911,1.3556984"
       id="path-effect1"
       is_visible="true"
       lpeversion="1.2"
       lpesatellites=""
       mode="free"
       discard_orig_path="false"
       fuse_paths="false"
       oposite_fuse="false"
       split_items="false"
       split_open="false"
       link_styles="false" />
    <inkscape:path-effect
       effect="mirror_symmetry"
       start_point="1.8405352,0.4637632"
       end_point="1.8405352,2.2476336"
       center_point="1.8405352,1.3556984"
       id="path-effect2-6"
       is_visible="true"
       lpeversion="1.2"
       lpesatellites=""
       mode="free"
       discard_orig_path="false"
       fuse_paths="false"
       oposite_fuse="false"
       split_items="false"
       split_open="false"
       link_styles="false" />
    <inkscape:path-effect
       effect="mirror_symmetry"
       start_point="1.8405352,0.4637632"
       end_point="1.8405352,2.2476336"
       center_point="1.8405352,1.3556984"
       id="path-effect2-6-7"
       is_visible="true"
       lpeversion="1.2"
       lpesatellites=""
       mode="free"
       discard_orig_path="false"
       fuse_paths="false"
       oposite_fuse="false"
       split_items="false"
       split_open="false"
       link_styles="false" />
    <inkscape:path-effect
       effect="mirror_symmetry"
       start_point="1.8405352,0.4637632"
       end_point="1.8405352,2.2476336"
       center_point="1.8405352,1.3556984"
       id="path-effect2-6-0"
       is_visible="true"
       lpeversion="1.2"
       lpesatellites=""
       mode="free"
       discard_orig_path="false"
       fuse_paths="false"
       oposite_fuse="false"
       split_items="false"
       split_open="false"
       link_styles="false" />
    <inkscape:path-effect
       effect="mirror_symmetry"
       start_point="1.8405352,0.4637632"
       end_point="1.8405352,2.2476336"
       center_point="1.8405352,1.3556984"
       id="path-effect2-8"
       is_visible="true"
       lpeversion="1.2"
       lpesatellites=""
       mode="free"
       discard_orig_path="false"
       fuse_paths="false"
       oposite_fuse="false"
       split_items="false"
       split_open="false"
       link_styles="false" />
    <style
       id="style1">.cls-1{fill:#dd8a2c;}.cls-2{fill:#f8874d;}.cls-3{fill:#eea33e;}.cls-4{fill:#f8a480;}.cls-5{fill:#de902c;}.cls-6{fill:#f4b098;}.cls-7{fill:#fff;}</style>
  </defs>
  <g
     inkscape:label="Layer 1"
     inkscape:groupmode="layer"
     id="layer1"
     style="display:inline">
    <title
       id="title1" />
    <title
       id="title1-5" />
    <g
       id="g10"
       inkscape:label="nut &amp; aple"
       transform="matrix(1.252573,0,0,1.252573,-1.6038386,-1.6038386)">
      <g
         id="g9"
         inkscape:label="apple"
         style="display:inline">
        <path
           style="fill:#8ebf71;fill-opacity:1;stroke-width:0.0127005"
           d="m 6.0010004,4.3726536 c 0.2899742,-0.2352073 0.6519744,-0.3636127 1.0253475,-0.363702 0.00545,0 0.010902,3.03e-5 0.016345,9.1e-5 0.8934536,0.009 1.6151577,0.750331 1.608795,1.652509 l -1.28e-5,-1.1e-5 c -0.00489,0.690905 -0.1971368,1.444514 -0.5143697,2.015946 -0.3688089,0.664616 -0.8717223,1.030631 -1.4160138,1.030631 -0.2643717,4.515e-4 -0.5227311,-0.078859 -0.7413142,-0.227567 -0.1043542,-0.071453 -0.2418862,-0.071453 -0.3462404,0 -0.218583,0.1487079 -0.4769422,0.2280184 -0.7413138,0.227567 -0.5473268,0 -1.05132,-0.364834 -1.419151,-1.027303 -0.3156703,-0.568512 -0.506749,-1.320748 -0.511207,-2.012238 -0.00582,-0.90496 0.7149225,-1.649474 1.6067246,-1.659533 0.3806272,-0.00414 0.7506834,0.1251601 1.0459093,0.365443 0.0085,0.00693 0.017308,0.013476 0.026583,0.01932 z"
           id="path8"
           inkscape:label="apple" />
        <path
           style="display:inline;fill:#2d5936;fill-opacity:1;stroke-width:0.0127005"
           d="M 5.752396,4.1513245 C 4.6320343,4.09273 4.2540186,2.6730813 4.574319,2.6553237 5.145278,2.6233327 5.7455929,3.0020902 5.9342514,3.5803222"
           id="path9"
           inkscape:label="leaf" />
        <path
           style="display:inline;fill:#53231a;fill-opacity:1;stroke-width:0.0127005"
           d="m 5.6934528,4.4191474 c 0.0058,-0.05874 0.03638,-0.1931027 0.1345635,-0.5517649 C 6.0286819,3.2420427 6.2839591,2.9811962 6.565643,2.8051422 6.6805641,2.7331632 6.7882642,2.9054831 6.6733431,2.9774622 6.1114738,3.3286432 5.9603982,4.0833303 5.9207852,4.4105453"
           id="path1"
           sodipodi:nodetypes="ccccc"
           inkscape:label="STEM" />
      </g>
      <g
         id="g5"
         inkscape:label="Nut"
         transform="translate(0.73426397,-0.4803585)"
         style="display:inline">
        <path
           class="cls-1"
           d="M 7.9172659,9.2905871 C 9.1521497,7.6812652 6.7158735,7.6089494 8.5866827,6.0422281 8.6637698,5.830045 5.9049385,5.6232681 4.8117883,7.048145 3.805495,8.4280406 4.6906968,9.8370786 5.1340624,8.5501016 6.1442884,9.2715432 6.9785699,10.51337 7.9172659,9.2905871 Z"
           id="path1-5"
           style="stroke-width:0.0339915"
           sodipodi:nodetypes="ccccc" />
        <path
           class="cls-2"
           d="M 5.4300621,9.9319134 C 4.9850644,9.6145194 4.6309082,9.2553808 4.4523401,8.8467893 4.9449094,8.4429889 5.4996698,8.8394685 5.9870685,9.1869795 6.474491,9.5344571 7.0119096,9.9189544 6.7711252,10.51465 6.3196431,10.464957 5.8672284,10.244477 5.4289591,9.9311185 Z"
           id="path2"
           style="stroke-width:0.0339915" />
        <path
           class="cls-3"
           d="M 8.5866827,6.0422281 C 8.591398,6.0292875 8.5858473,6.0160641 8.5702477,6.0039892 7.5303923,6.0933752 6.1163307,6.4711684 5.3399354,7.4862013 4.8122194,8.1730552 4.6521767,8.7788073 4.7450927,9.3137977 A 3.5670757,3.5670757 0 0 0 5.4300154,9.9331408 C 6.4405341,10.654757 7.5317496,10.884782 8.4705998,9.6629479 9.7053308,8.052675 8.3808449,6.610365 8.58676,6.0427024 Z"
           id="path3-4"
           style="stroke-width:0.0339915" />
        <path
           class="cls-4"
           d="M 5.9874213,9.1876528 C 5.5953691,8.9084182 5.1600979,8.5972948 4.7493402,8.6963164 a 1.7437677,1.7437677 0 0 0 -0.00578,0.6155359 0.01631595,0.01631595 45 0 0 0.00496,0.00358 3.6710899,3.6710899 0 0 0 0.9272532,0.7801737 4.0031875,4.0031875 0 0 0 0.5269733,0.268766 c 0.1685451,0.07078 0.3781784,0.153144 0.5686486,0.15048 C 7.0130035,9.9180196 6.4781303,9.5375484 5.9879414,9.1863513 Z"
           id="path4"
           style="stroke-width:0.0339915" />
        <path
           class="cls-5"
           d="M 5.9529395,7.4838665 C 5.1835125,8.4863241 5.1754944,9.3311153 5.5952662,10.045114 6.5586094,10.674057 7.5831696,10.817507 8.4698188,9.6611247 9.6833254,8.0791336 8.4234805,6.6570158 8.5773122,6.0715079 7.6259403,6.2514824 6.5822227,6.6636479 5.9529395,7.4838665 Z"
           id="path5"
           style="stroke-width:0.0339915" />
        <path
           class="cls-6"
           d="m 5.3393149,8.7846515 c -0.070872,0.4605197 0.030121,0.88024 0.2561051,1.2614115 a 3.4644211,3.4644211 0 0 0 0.606571,0.321106 c 0.1701361,0.06857 0.3784227,0.151643 0.5688929,0.148979 C 7.0116911,9.9204203 6.4772149,9.5393984 5.9868278,9.1884762 5.7811122,9.0402113 5.560072,8.8847227 5.3393161,8.7846499 Z"
           id="path6"
           style="stroke-width:0.0339915" />
        <path
           class="cls-7"
           d="M 8.552409,8.879716 A 1.3433469,1.3433469 0 0 0 8.8038301,8.101831 0.06963486,0.06963486 0 0 0 8.6649827,8.0910047 1.2050013,1.2050013 0 0 1 8.4369639,8.8015381 c -0.052867,0.073352 0.063175,0.1507015 0.1154639,0.078152 z M 8.3202732,9.2018013 a 0.06798314,0.06798314 0 0 0 0.026495,-0.022805 0.14718351,0.14718351 0 0 1 0.00773,-0.015378 0.06492391,0.06492391 0 0 0 0.00217,-0.03615 l -0.00113,-0.00832 a 0.07614112,0.07614112 0 0 0 -0.029604,-0.044385 0.0560861,0.0560861 0 0 0 -0.024946,-0.00957 0.0475882,0.0475882 0 0 0 -0.027143,-7.103e-4 l -0.017767,0.00605 a 0.07240205,0.07240205 0 0 0 -0.026219,0.023004 0.16587888,0.16587888 0 0 1 -0.00793,0.015652 0.06322433,0.06322433 0 0 0 -0.00245,0.035951 l 0.0014,0.00852 a 0.05098736,0.05098736 0 0 0 0.010603,0.024822 0.05268694,0.05268694 45 0 0 0.018937,0.019072 0.05744575,0.05744575 0 0 0 0.02501,0.010063 0.05200711,0.05200711 0 0 0 0.027143,7.103e-4 0.12168983,0.12168983 0 0 0 0.017491,-0.00625 z"
           id="path7"
           style="stroke-width:0.0339915" />
      </g>
    </g>
    <g
       id="g4"
       inkscape:label="verboden"
       style="display:inline">
      <circle
         style="fill:#bc4749;fill-opacity:0;stroke:#bc4749;stroke-width:0.79375;stroke-linecap:round;stroke-linejoin:round;stroke-dasharray:none;stroke-opacity:1"
         id="path3"
         cx="6.3499999"
         cy="6.3499999"
         r="5.953125" />
      <rect
         style="fill:#bc4749;fill-opacity:1;stroke:#bc4749;stroke-width:0.788324;stroke-linecap:round;stroke-linejoin:round;stroke-dasharray:none;stroke-opacity:0.00163897"
         id="rect4"
         width="12.441919"
         height="0.79917562"
         x="-6.1393375"
         y="8.5806684"
         transform="rotate(-45)" />
    </g>
  </g>
</svg>
